<svg xmlns="http://www.w3.org/2000/svg" viewBox="0 0 38.6 54.1"><title>Products</title><g id="50398e29-ead0-4506-82fa-fc107308fbe8" data-name="Layer 2"><g id="70082071-c800-41b0-bd19-b4b9ed27a332" data-name="Layer 1"><g id="fc0bd3f4-eb65-46aa-a376-8a27411ae2a0" data-name="Bag"><path d="M.8,20.3l6-6h31v37s0,2-3,2H.8Z" style="fill:none;stroke:#f2f2f2;stroke-miterlimit:10;stroke-width:1.6px"/><polygon points="0.8 20.8 31.3 20.8 31.3 53.3 0.8 53.3 0.8 20.8 0.8 20.8" style="fill:none;stroke:#f2f2f2;stroke-miterlimit:10;stroke-width:1.6px"/><line x1="31.3" y1="20.8" x2="37.3" y2="14.8" style="fill:#2e3192;stroke:#f2f2f2;stroke-miterlimit:10;stroke-width:1.3px"/><circle cx="7.8" cy="26.3" r="2" style="fill:none;stroke:#f2f2f2;stroke-miterlimit:10"/><circle cx="24.8" cy="26.3" r="2" style="fill:none;stroke:#f2f2f2;stroke-miterlimit:10"/><path d="M7.8,24.8v-8a8.52,8.52,0,0,1,8.5-8.5h0a8.52,8.52,0,0,1,8.5,8.5v8" style="fill:none;stroke:#f2f2f2;stroke-linecap:round;stroke-miterlimit:10;stroke-width:1.6px"/><path d="M13.8,14.3v-5A8.52,8.52,0,0,1,22.3.8h0a8.52,8.52,0,0,1,8.5,8.5v5" style="fill:none;stroke:#f2f2f2;stroke-linecap:round;stroke-miterlimit:10;stroke-width:1.6px"/></g></g></g></svg>