<svg xmlns="http://www.w3.org/2000/svg" viewBox="0 0 54 54"><title>Settings</title><g id="deff6489-5739-4b21-ac81-3abacb7df042" data-name="Layer 2"><g id="4389277f-08c4-4018-8825-aebf247fdee6" data-name="Layer 1"><path d="M27,13A14,14,0,1,0,41,27,14,14,0,0,0,27,13Zm0,26A12,12,0,1,1,39,27,12,12,0,0,1,27,39Z" style="fill:#f2f2f2"/><path d="M51.22,21h-2a22.65,22.65,0,0,0-2.26-5.46l1.43-1.42a2.8,2.8,0,0,0,0-3.94L43.81,5.63a2.85,2.85,0,0,0-3.93,0L38.46,7.06A22.65,22.65,0,0,0,33,4.8v-2A2.79,2.79,0,0,0,30.22,0H23.78A2.79,2.79,0,0,0,21,2.78v2a22.65,22.65,0,0,0-5.46,2.26L14.12,5.63a2.86,2.86,0,0,0-3.94,0L5.63,10.18a2.8,2.8,0,0,0,0,3.94l1.43,1.42A22.65,22.65,0,0,0,4.8,21h-2A2.79,2.79,0,0,0,0,23.78v6.44A2.79,2.79,0,0,0,2.78,33h2a22.65,22.65,0,0,0,2.26,5.46L5.63,39.88a2.8,2.8,0,0,0,0,3.94l4.55,4.55a2.86,2.86,0,0,0,3.94,0l1.42-1.43A22.65,22.65,0,0,0,21,49.2v2A2.79,2.79,0,0,0,23.78,54h6.44A2.79,2.79,0,0,0,33,51.22v-2a22.65,22.65,0,0,0,5.46-2.26l1.42,1.43a2.86,2.86,0,0,0,3.94,0l4.55-4.55a2.8,2.8,0,0,0,0-3.94l-1.43-1.42A22.65,22.65,0,0,0,49.2,33h2A2.79,2.79,0,0,0,54,30.22V23.78A2.79,2.79,0,0,0,51.22,21ZM52,30.22a.78.78,0,0,1-.78.78H47.63l-.18.77a20.91,20.91,0,0,1-2.61,6.31l-.42.68L47,41.3a.77.77,0,0,1,0,1.1L42.4,47a.77.77,0,0,1-1.1,0l-2.54-2.53-.68.41a20.68,20.68,0,0,1-6.31,2.62l-.77.18v3.59a.78.78,0,0,1-.78.78H23.78a.78.78,0,0,1-.78-.78V47.63l-.77-.18a20.91,20.91,0,0,1-6.31-2.61l-.68-.42L12.7,47a.77.77,0,0,1-1.1,0L7.05,42.4a.77.77,0,0,1,0-1.1l2.53-2.54-.42-.68a20.91,20.91,0,0,1-2.61-6.31L6.37,31H2.78A.78.78,0,0,1,2,30.22V23.78A.78.78,0,0,1,2.78,23H6.37l.18-.77a20.91,20.91,0,0,1,2.61-6.31l.42-.68L7.05,12.7a.77.77,0,0,1,0-1.1L11.6,7.05a.77.77,0,0,1,1.1,0l2.54,2.53.68-.42a20.91,20.91,0,0,1,6.31-2.61L23,6.37V2.78A.78.78,0,0,1,23.78,2h6.44a.78.78,0,0,1,.78.78V6.37l.77.18a20.91,20.91,0,0,1,6.31,2.61l.68.42L41.3,7.05a.77.77,0,0,1,1.1,0L47,11.6a.77.77,0,0,1,0,1.1l-2.53,2.54.41.68a20.58,20.58,0,0,1,2.62,6.31l.18.77h3.59a.78.78,0,0,1,.78.78Z" style="fill:#f2f2f2"/><path d="M27,17A10,10,0,1,0,37,27,10,10,0,0,0,27,17Zm0,18a8,8,0,1,1,8-8A8,8,0,0,1,27,35Z" style="fill:#f2f2f2"/></g></g></svg>