<?xml version="1.0" encoding="utf-8"?>
<!-- Generator: Adobe Illustrator 15.0.0, SVG Export Plug-In . SVG Version: 6.00 Build 0)  -->
<!DOCTYPE svg PUBLIC "-//W3C//DTD SVG 1.1//EN" "http://www.w3.org/Graphics/SVG/1.1/DTD/svg11.dtd" [
	<!ENTITY ns_flows "http://ns.adobe.com/Flows/1.0/">
	<!ENTITY ns_extend "http://ns.adobe.com/Extensibility/1.0/">
	<!ENTITY ns_ai "http://ns.adobe.com/AdobeIllustrator/10.0/">
	<!ENTITY ns_graphs "http://ns.adobe.com/Graphs/1.0/">
]>
<svg version="1.1" id="Layer_1" xmlns:x="&ns_extend;" xmlns:i="&ns_ai;" xmlns:graph="&ns_graphs;"
	 xmlns="http://www.w3.org/2000/svg" xmlns:xlink="http://www.w3.org/1999/xlink" xmlns:a="http://ns.adobe.com/AdobeSVGViewerExtensions/3.0/"
	 x="0px" y="0px" width="250px" height="80px" viewBox="0 0 250 80" enable-background="new 0 0 250 80" xml:space="preserve">
<rect x="-0.5" y="0.5" fill="#F0EFEF" stroke="#F0EFEF" stroke-miterlimit="10" width="250" height="81"/>
<g>
	<path fill="#C1C1C1" d="M87.4,22.7h4.5v28.9h8.2v3.2H87.4V22.7z"/>
	<path fill="#C1C1C1" d="M104.3,52.4c-1.4-1.8-2-4.4-2-7.7V32.5c0-3.3,0.7-5.8,2.1-7.6c1.4-1.7,3.6-2.6,6.7-2.6
		c3.1,0,5.3,0.9,6.7,2.6c1.4,1.7,2,4.2,2,7.5v12.2c0,3.3-0.7,5.9-2.1,7.7c-1.4,1.8-3.6,2.7-6.7,2.7C108,55.1,105.7,54.2,104.3,52.4z
		 M114.5,50.1c0.6-1,0.9-2.5,0.9-4.4V31.6c0-2-0.3-3.4-0.9-4.3c-0.6-0.9-1.7-1.4-3.4-1.4c-1.7,0-2.8,0.5-3.4,1.4
		c-0.6,0.9-0.9,2.4-0.9,4.3v14.1c0,2,0.3,3.5,0.9,4.4c0.6,1,1.7,1.5,3.4,1.5C112.8,51.6,113.9,51.1,114.5,50.1z"/>
	<path fill="#C1C1C1" d="M125.6,52.4c-1.3-1.8-1.9-4.6-1.9-8.2V33.5c0-2.5,0.3-4.5,0.8-6.1c0.5-1.6,1.4-2.8,2.7-3.7
		c1.3-0.9,3-1.3,5.2-1.3c3,0,5.1,0.8,6.4,2.3c1.3,1.5,2,3.9,2,7.1v1.2h-4.2v-1c0-1.5-0.1-2.7-0.3-3.5s-0.6-1.5-1.2-1.9
		c-0.6-0.4-1.5-0.6-2.6-0.6c-1.2,0-2.2,0.3-2.8,0.9c-0.6,0.6-1,1.3-1.2,2.3c-0.2,1-0.3,2.2-0.3,3.8v11.9c0,2.5,0.3,4.2,0.9,5.3
		c0.6,1.1,1.7,1.6,3.4,1.6c1.7,0,2.8-0.6,3.4-1.7s0.9-3,0.9-5.6V42h-4.1v-3.2h8.1v15.9H138l-0.4-3.7c-1,2.7-2.9,4.1-5.7,4.1
		C129,55.1,126.9,54.2,125.6,52.4z"/>
	<path fill="#C1C1C1" d="M146.9,52.4c-1.4-1.8-2-4.4-2-7.7V32.5c0-3.3,0.7-5.8,2.1-7.6s3.6-2.6,6.7-2.6c3.1,0,5.3,0.9,6.7,2.6
		c1.4,1.7,2,4.2,2,7.5v12.2c0,3.3-0.7,5.9-2.1,7.7c-1.4,1.8-3.6,2.7-6.7,2.7C150.5,55.1,148.2,54.2,146.9,52.4z M157,50.1
		c0.6-1,0.9-2.5,0.9-4.4V31.6c0-2-0.3-3.4-0.9-4.3c-0.6-0.9-1.7-1.4-3.4-1.4c-1.7,0-2.8,0.5-3.4,1.4c-0.6,0.9-0.9,2.4-0.9,4.3v14.1
		c0,2,0.3,3.5,0.9,4.4c0.6,1,1.7,1.5,3.4,1.5C155.3,51.6,156.4,51.1,157,50.1z"/>
</g>
</svg>
