<?xml version="1.0" encoding="utf-8"?>
<!-- Generator: Adobe Illustrator 15.0.0, SVG Export Plug-In . SVG Version: 6.00 Build 0)  -->
<!DOCTYPE svg PUBLIC "-//W3C//DTD SVG 1.1//EN" "http://www.w3.org/Graphics/SVG/1.1/DTD/svg11.dtd">
<svg version="1.1" id="Layer_1" xmlns="http://www.w3.org/2000/svg" xmlns:xlink="http://www.w3.org/1999/xlink" x="0px" y="0px"
	 width="80px" height="60px" viewBox="0 0 80 60" enable-background="new 0 0 80 60" xml:space="preserve">
<rect x="0.5" y="0.5" fill="#FFFFFF" stroke="#B3E4FF" stroke-miterlimit="10" width="79" height="59"/>
<g>
	<rect x="5.5" y="5.5" fill="none" stroke="#7EBAE3" stroke-miterlimit="10" width="38" height="44.5"/>
</g>
<line fill="none" stroke="#7EBAE3" stroke-miterlimit="10" x1="49" y1="6.5" x2="75" y2="6.5"/>
<line fill="none" stroke="#7EBAE3" stroke-miterlimit="10" x1="49" y1="10.5" x2="73" y2="10.5"/>
<line fill="none" stroke="#7EBAE3" stroke-miterlimit="10" x1="49" y1="14.5" x2="69" y2="14.5"/>
<line fill="none" stroke="#7EBAE3" stroke-miterlimit="10" x1="49" y1="26.5" x2="69" y2="26.5"/>
<line fill="none" stroke="#7EBAE3" stroke-miterlimit="10" x1="49" y1="18.5" x2="73" y2="18.5"/>
<line fill="none" stroke="#7EBAE3" stroke-miterlimit="10" x1="49" y1="22.5" x2="73" y2="22.5"/>
<line fill="none" stroke="#7EBAE3" stroke-miterlimit="10" x1="49" y1="30" x2="75" y2="30"/>
<line fill="none" stroke="#7EBAE3" stroke-miterlimit="10" x1="49" y1="34" x2="73" y2="34"/>
<line fill="none" stroke="#7EBAE3" stroke-miterlimit="10" x1="49" y1="38" x2="69" y2="38"/>
<line fill="none" stroke="#7EBAE3" stroke-miterlimit="10" x1="49" y1="50" x2="69" y2="50"/>
<line fill="none" stroke="#7EBAE3" stroke-miterlimit="10" x1="49" y1="42" x2="73" y2="42"/>
<line fill="none" stroke="#7EBAE3" stroke-miterlimit="10" x1="49" y1="46" x2="73" y2="46"/>
</svg>
