<?xml version="1.0" encoding="utf-8"?>
<!-- Generator: Adobe Illustrator 15.0.0, SVG Export Plug-In . SVG Version: 6.00 Build 0)  -->
<!DOCTYPE svg PUBLIC "-//W3C//DTD SVG 1.1//EN" "http://www.w3.org/Graphics/SVG/1.1/DTD/svg11.dtd">
<svg version="1.1" id="Layer_1" xmlns="http://www.w3.org/2000/svg" xmlns:xlink="http://www.w3.org/1999/xlink" x="0px" y="0px"
	 width="80px" height="60px" viewBox="0 0 80 60" enable-background="new 0 0 80 60" xml:space="preserve">
<rect x="0.5" y="0.5" fill="#FFFFFF" stroke="#B3E4FF" stroke-miterlimit="10" width="79" height="59"/>
<line fill="none" stroke="#7EBAE3" stroke-miterlimit="10" x1="37.131" y1="7.5" x2="43.343" y2="7.5"/>
<line fill="none" stroke="#7EBAE3" stroke-miterlimit="10" x1="46.122" y1="7.5" x2="52.335" y2="7.5"/>
<line fill="none" stroke="#7EBAE3" stroke-miterlimit="10" x1="55.251" y1="7.5" x2="62.301" y2="7.5"/>
<line fill="none" stroke="#7EBAE3" stroke-miterlimit="10" x1="64.449" y1="7.5" x2="71.5" y2="7.5"/>
<g enable-background="new    ">
	<g>
		<path fill="#09ABE0" d="M6.541,5.113h0.663v4.53h2.171v0.55H6.541V5.113z"/>
		<path fill="#09ABE0" d="M14.45,7.601c0,1.741-1.063,2.676-2.359,2.676c-1.349,0-2.284-1.048-2.284-2.586
			c0-1.612,0.995-2.668,2.352-2.668C13.553,5.022,14.45,6.085,14.45,7.601z M10.5,7.676c0,1.093,0.588,2.065,1.628,2.065
			s1.628-0.957,1.628-2.11c0-1.018-0.528-2.073-1.621-2.073C11.043,5.558,10.5,6.567,10.5,7.676z"/>
		<path fill="#09ABE0" d="M19.18,9.967c-0.294,0.113-0.882,0.279-1.568,0.279c-0.769,0-1.402-0.196-1.899-0.671
			c-0.438-0.422-0.708-1.101-0.708-1.892c0-1.516,1.048-2.623,2.751-2.623c0.588,0,1.056,0.128,1.274,0.233l-0.166,0.535
			c-0.271-0.128-0.611-0.219-1.123-0.219c-1.236,0-2.043,0.769-2.043,2.043c0,1.289,0.769,2.05,1.96,2.05
			c0.43,0,0.724-0.06,0.875-0.136V8.053h-1.025V7.525h1.673L19.18,9.967L19.18,9.967z"/>
		<path fill="#09ABE0" d="M24.52,7.601c0,1.741-1.063,2.676-2.359,2.676c-1.349,0-2.284-1.048-2.284-2.586
			c0-1.612,0.995-2.668,2.352-2.668C23.623,5.022,24.52,6.085,24.52,7.601z M20.57,7.676c0,1.093,0.588,2.065,1.628,2.065
			c1.041,0,1.628-0.957,1.628-2.11c0-1.018-0.528-2.073-1.621-2.073C21.112,5.558,20.57,6.567,20.57,7.676z"/>
	</g>
</g>
<rect x="7.351" y="14.25" fill="#FFFFFF" stroke="#7FBFE2" stroke-miterlimit="10" width="38.399" height="30.75"/>
<rect x="7.351" y="48.875" fill="#FFFFFF" stroke="#7FBFE2" stroke-miterlimit="10" width="64.274" height="5.875"/>
<rect x="49.125" y="14.25" fill="#FFFFFF" stroke="#7FBFE2" stroke-miterlimit="10" width="22.5" height="30.75"/>
</svg>
