<?xml version="1.0" encoding="utf-8"?>
<!-- Generator: Adobe Illustrator 15.0.0, SVG Export Plug-In . SVG Version: 6.00 Build 0)  -->
<!DOCTYPE svg PUBLIC "-//W3C//DTD SVG 1.1//EN" "http://www.w3.org/Graphics/SVG/1.1/DTD/svg11.dtd">
<svg version="1.1" id="Layer_1" xmlns="http://www.w3.org/2000/svg" xmlns:xlink="http://www.w3.org/1999/xlink" x="0px" y="0px"
	 width="80px" height="60px" viewBox="0 0 80 60" enable-background="new 0 0 80 60" xml:space="preserve">
<rect x="0.5" y="0.5" fill="#FFFFFF" stroke="#B3E4FF" stroke-miterlimit="10" width="79" height="59"/>
<line fill="none" stroke="#7EBAE3" stroke-miterlimit="10" x1="14.083" y1="16" x2="23.5" y2="16"/>
<line fill="none" stroke="#7EBAE3" stroke-miterlimit="10" x1="28.776" y1="16" x2="38.194" y2="16"/>
<line fill="none" stroke="#7EBAE3" stroke-miterlimit="10" x1="42.835" y1="16" x2="53.521" y2="16"/>
<line fill="none" stroke="#7EBAE3" stroke-miterlimit="10" x1="57.527" y1="16" x2="68.215" y2="16"/>
<g enable-background="new    ">
	<g>
		<path fill="#09ABE0" d="M29.814,5.323h0.807v5.511h2.641v0.67h-3.448V5.323z"/>
		<path fill="#09ABE0" d="M39.434,8.35c0,2.118-1.293,3.255-2.87,3.255c-1.642,0-2.779-1.274-2.779-3.146
			c0-1.962,1.21-3.246,2.861-3.246C38.342,5.213,39.434,6.506,39.434,8.35z M34.628,8.441c0,1.329,0.715,2.513,1.981,2.513
			s1.98-1.165,1.98-2.568c0-1.238-0.642-2.521-1.971-2.521C35.289,5.864,34.628,7.093,34.628,8.441z"/>
		<path fill="#09ABE0" d="M45.184,11.229c-0.356,0.138-1.072,0.34-1.906,0.34c-0.936,0-1.707-0.238-2.312-0.816
			c-0.532-0.514-0.862-1.339-0.862-2.302c0-1.844,1.275-3.191,3.348-3.191c0.715,0,1.282,0.156,1.549,0.284L44.8,6.195
			c-0.329-0.156-0.741-0.267-1.366-0.267c-1.504,0-2.484,0.937-2.484,2.485c0,1.568,0.936,2.495,2.385,2.495
			c0.521,0,0.88-0.074,1.063-0.165V8.899H43.15V8.258h2.035v2.971H45.184z"/>
		<path fill="#09ABE0" d="M51.677,8.35c0,2.118-1.293,3.255-2.87,3.255c-1.642,0-2.779-1.274-2.779-3.146
			c0-1.962,1.211-3.246,2.861-3.246C50.586,5.213,51.677,6.506,51.677,8.35z M46.871,8.441c0,1.329,0.716,2.513,1.98,2.513
			c1.266,0,1.98-1.165,1.98-2.568c0-1.238-0.643-2.521-1.973-2.521S46.871,7.093,46.871,8.441z"/>
	</g>
</g>
<rect x="7.351" y="19.75" fill="#FFFFFF" stroke="#7FBFE2" stroke-miterlimit="10" width="38.399" height="25.25"/>
<rect x="7.351" y="48.875" fill="#FFFFFF" stroke="#7FBFE2" stroke-miterlimit="10" width="64.274" height="5.875"/>
<rect x="49.125" y="19.75" fill="#FFFFFF" stroke="#7FBFE2" stroke-miterlimit="10" width="22.5" height="25.25"/>
</svg>
