<?xml version="1.0" encoding="utf-8"?>
<!-- Generator: Adobe Illustrator 15.0.0, SVG Export Plug-In . SVG Version: 6.00 Build 0)  -->
<!DOCTYPE svg PUBLIC "-//W3C//DTD SVG 1.1//EN" "http://www.w3.org/Graphics/SVG/1.1/DTD/svg11.dtd">
<svg version="1.1" id="Layer_1" xmlns="http://www.w3.org/2000/svg" xmlns:xlink="http://www.w3.org/1999/xlink" x="0px" y="0px"
	 width="80px" height="60px" viewBox="0 0 80 60" enable-background="new 0 0 80 60" xml:space="preserve">
<rect x="0.5" y="0.5" fill="#FFFFFF" stroke="#B3E4FF" stroke-miterlimit="10" width="79" height="59"/>
<line fill="none" stroke="#7EBAE3" stroke-miterlimit="10" x1="9.976" y1="19.935" x2="15.131" y2="19.935"/>
<line fill="none" stroke="#7EBAE3" stroke-miterlimit="10" x1="17.438" y1="19.935" x2="22.594" y2="19.935"/>
<line fill="none" stroke="#7EBAE3" stroke-miterlimit="10" x1="25.015" y1="19.935" x2="30.866" y2="19.935"/>
<line fill="none" stroke="#7EBAE3" stroke-miterlimit="10" x1="32.648" y1="19.935" x2="38.5" y2="19.935"/>
<g enable-background="new    ">
	<g>
		<path fill="#09ABE0" d="M10.541,10.113h0.663v4.53h2.171v0.55h-2.834V10.113z"/>
		<path fill="#09ABE0" d="M18.45,12.601c0,1.741-1.063,2.676-2.359,2.676c-1.349,0-2.284-1.048-2.284-2.586
			c0-1.612,0.995-2.668,2.352-2.668C17.553,10.022,18.45,11.085,18.45,12.601z M14.5,12.676c0,1.093,0.588,2.065,1.628,2.065
			s1.628-0.957,1.628-2.11c0-1.018-0.528-2.073-1.621-2.073C15.043,10.558,14.5,11.567,14.5,12.676z"/>
		<path fill="#09ABE0" d="M23.18,14.967c-0.294,0.113-0.882,0.279-1.568,0.279c-0.769,0-1.402-0.196-1.899-0.671
			c-0.438-0.422-0.708-1.101-0.708-1.892c0-1.516,1.048-2.623,2.751-2.623c0.588,0,1.056,0.128,1.274,0.233l-0.166,0.535
			c-0.271-0.128-0.611-0.219-1.123-0.219c-1.236,0-2.043,0.769-2.043,2.043c0,1.289,0.769,2.05,1.96,2.05
			c0.43,0,0.724-0.06,0.875-0.136v-1.515h-1.025v-0.527h1.673L23.18,14.967L23.18,14.967z"/>
		<path fill="#09ABE0" d="M28.52,12.601c0,1.741-1.063,2.676-2.359,2.676c-1.349,0-2.284-1.048-2.284-2.586
			c0-1.612,0.995-2.668,2.352-2.668C27.623,10.022,28.52,11.085,28.52,12.601z M24.57,12.676c0,1.093,0.588,2.065,1.628,2.065
			c1.041,0,1.628-0.957,1.628-2.11c0-1.018-0.528-2.073-1.621-2.073C25.112,10.558,24.57,11.567,24.57,12.676z"/>
	</g>
</g>
<rect x="50" y="5" fill="#FFFFFF" stroke="#7FBFE2" stroke-miterlimit="10" width="24.77" height="49.861"/>
<rect x="4.5" y="5" fill="none" stroke="#7FBFE2" stroke-miterlimit="10" width="40.25" height="39.167"/>
<rect x="4.5" y="48" fill="#FFFFFF" stroke="#7FBFE2" stroke-miterlimit="10" width="40.25" height="6.861"/>
</svg>
