<?xml version="1.0" encoding="utf-8"?>
<!-- Generator: Adobe Illustrator 22.0.1, SVG Export Plug-In . SVG Version: 6.00 Build 0)  -->
<svg version="1.1" id="Layer_1" xmlns="http://www.w3.org/2000/svg" xmlns:xlink="http://www.w3.org/1999/xlink" x="0px" y="0px"
	 viewBox="0 0 150 150" style="enable-background:new 0 0 150 150;" xml:space="preserve">
<style type="text/css">
	.st0{fill:#9F9F9F;}
</style>
<g>
	<path class="st0" d="M130.4,28.2l-54-26.4l-1-0.5l-1,0.5l-54,26.4l-1.3,0.6v1.4v51.6v0l0,0l0,0.4l0,0l0,0c0,0.8,0.4,7.7,4,16.6
		c2.1,5.2,4.8,10.1,8.1,14.6c4.1,5.5,9.2,10.4,15,14.5L74,148.3l1.4,1l1.4-1l27.8-20.3c5.8-4.1,10.9-8.9,15-14.5
		c3.3-4.5,6.1-9.4,8.1-14.6c3.5-8.9,3.9-15.8,4-16.6l0-0.1v-0.1l0-52l0-1.4L130.4,28.2z M129.4,82.3c0,0.7-0.4,7.3-3.8,15.9
		c-2,5-4.6,9.7-7.9,14c-4,5.3-8.9,10-14.5,14l-27.8,20.3l-27.8-20.3c-5.6-3.9-10.5-8.6-14.5-14c-3.2-4.3-5.9-9-7.9-14
		c-3.4-8.5-3.8-15.1-3.8-15.9l0-0.4V30.3l54-26.4l54,26.4L129.4,82.3z"/>
	<path class="st0" d="M27.8,34.7v3.8v43.8v0.1v0l0,0.1c0,0.1,0.1,1.1,0.3,2.8c0,0.3,0.1,0.5,0.1,0.8c0.1,0.4,0.2,0.9,0.3,1.4
		c0,0.2,0.1,0.3,0.1,0.5c0.1,0.3,0.2,0.7,0.2,1.1c0.4,1.5,0.8,3.2,1.5,5c0.2,0.7,0.5,1.4,0.8,2.1c0.7,1.7,1.4,3.3,2.2,4.9
		c1.4,2.7,3,5.2,4.8,7.6c0.7,0.9,1.4,1.8,2.1,2.6c0.5,0.6,1,1.1,1.5,1.7c1,1.1,2.1,2.2,3.2,3.2c2,1.8,4.1,3.5,6.3,5l21.9,16l2.2,1.6
		l2.2-1.6l21.9-16c0.6-0.4,1.3-0.9,1.9-1.4c2.8-2.1,5.3-4.4,7.6-6.9c0.5-0.6,1-1.1,1.5-1.7c0.7-0.9,1.4-1.7,2.1-2.6
		c1.4-1.9,2.8-4,3.9-6.1c1.2-2.1,2.2-4.3,3.1-6.5c0.4-1,0.7-1.9,1-2.8c0.2-0.4,0.3-0.9,0.4-1.3c0.1-0.4,0.3-0.8,0.4-1.3
		c0.1-0.4,0.2-0.8,0.3-1.2c0.1-0.3,0.2-0.7,0.2-1c0.1-0.2,0.1-0.4,0.1-0.6c0-0.2,0.1-0.3,0.1-0.5c0.1-0.5,0.2-1,0.3-1.4
		c0.1-0.3,0.1-0.6,0.1-0.8c0.3-1.7,0.3-2.7,0.3-2.8l0-0.1v0v-0.1V38.4v-3.8L75.4,11.4L27.8,34.7z M120.7,38.4v43.8v0l0,0l0,0
		c0,0.2-0.2,5.1-2.7,11.7c-0.2,0.4-0.3,0.9-0.5,1.3c-0.9,2.3-2,4.5-3.2,6.6c-1.1,1.9-2.2,3.7-3.5,5.4c-1.5,2-3.2,3.9-5,5.7
		c-1.8,1.8-3.7,3.5-5.8,5.1c-0.6,0.4-1.2,0.9-1.8,1.3l0,0l0,0l-21.9,16l-0.9,0.6l-0.9-0.6L60,124.8l-7.3-5.3l0,0l0,0
		c-0.3-0.2-0.6-0.4-0.9-0.6c-0.5-0.4-1.1-0.8-1.6-1.2c-0.1-0.1-0.3-0.2-0.4-0.3c-0.5-0.4-0.9-0.7-1.3-1.1c-0.1-0.1-0.2-0.2-0.3-0.2
		c-0.5-0.4-0.9-0.8-1.4-1.2c-0.1-0.1-0.2-0.1-0.2-0.2c-0.5-0.5-1-0.9-1.5-1.4c0,0,0,0,0,0c-1.8-1.8-3.5-3.7-5-5.7
		c-0.7-0.9-1.4-1.9-2-2.8c-0.9-1.4-1.8-2.9-2.6-4.5c-0.8-1.5-1.5-3.1-2.2-4.7c0-0.1-0.1-0.2-0.1-0.3c-0.2-0.5-0.4-1-0.6-1.5
		c-0.1-0.2-0.1-0.3-0.2-0.5c-2.1-6.2-2.4-10.6-2.4-10.8l0,0l0,0v0V38.4v-2.3L75.4,14l45.3,22.1V38.4z"/>
	<circle class="st0" cx="109" cy="24.9" r="1.5"/>
	<circle class="st0" cx="92.1" cy="16.6" r="1.5"/>
	<circle class="st0" cx="75.3" cy="8.3" r="1.5"/>
	<circle class="st0" cx="58.7" cy="16.6" r="1.5"/>
	<circle class="st0" cx="42" cy="24.9" r="1.5"/>
	<circle class="st0" cx="125.8" cy="33.2" r="1.5"/>
	<circle class="st0" cx="25.3" cy="33.2" r="1.5"/>
	<circle class="st0" cx="125.9" cy="49.4" r="1.5"/>
	<circle class="st0" cx="25.3" cy="49.4" r="1.5"/>
	<circle class="st0" cx="126" cy="65.6" r="1.5"/>
	<circle class="st0" cx="25.2" cy="65.6" r="1.5"/>
	<circle class="st0" cx="126" cy="81.8" r="1.5"/>
	<circle class="st0" cx="25.1" cy="81.8" r="1.5"/>
	<circle class="st0" cx="29.7" cy="99.8" r="1.5"/>
	<circle class="st0" cx="75.3" cy="142.3" r="1.5"/>
	<circle class="st0" cx="121.4" cy="99.8" r="1.5"/>
	<circle class="st0" cx="39.2" cy="114.9" r="1.5"/>
	<circle class="st0" cx="111.2" cy="114.9" r="1.5"/>
	<circle class="st0" cx="56.4" cy="129.2" r="1.5"/>
	<circle class="st0" cx="94" cy="129.2" r="1.5"/>
	<path class="st0" d="M60.5,79l-8-8.2c-1.4-1.4-3.6,0.2-2.8,2L60,93.6c2,4.1,7.6,4.8,10.6,1.2l33.9-40.7c1.2-1.4-0.7-3.2-2.1-2.1
		L70.3,79.4C67.4,81.9,63.1,81.7,60.5,79z"/>
</g>
</svg>
