<?xml version="1.0" encoding="utf-8"?>
<!-- Generator: Adobe Illustrator 22.0.1, SVG Export Plug-In . SVG Version: 6.00 Build 0)  -->
<svg version="1.1" id="Layer_1" xmlns="http://www.w3.org/2000/svg" xmlns:xlink="http://www.w3.org/1999/xlink" x="0px" y="0px"
	 viewBox="0 0 150 150" style="enable-background:new 0 0 150 150;" xml:space="preserve">
<style type="text/css">
	.st0{fill:#9F9F9F;}
</style>
<g>
	<path class="st0" d="M74.8,88.9c21.9,0,39.7-17.8,39.7-39.7S96.7,9.6,74.8,9.6S35.1,27.4,35.1,49.2S52.9,88.9,74.8,88.9z
		 M74.8,12.8c20.1,0,36.4,16.3,36.4,36.4S94.9,85.7,74.8,85.7S38.4,69.3,38.4,49.2S54.7,12.8,74.8,12.8z"/>
	<path class="st0" d="M107.3,85.6c0.3-0.2,0.7-0.5,1-0.8c1.6-1.5,2.5-3.6,2.6-5.8c0-2.1,1.4-3.9,3.3-4.5c2.1-0.7,3.8-2.2,4.8-4.2
		c1-2,1.1-4.3,0.3-6.3c-0.7-1.9-0.1-4.1,1.5-5.4c1.7-1.4,2.8-3.4,2.9-5.6c0.2-2.2-0.5-4.4-2-6c-1.4-1.5-1.6-3.8-0.6-5.6
		c1.1-1.9,1.4-4.2,0.7-6.3c-0.6-2.1-2.1-3.9-4.1-4.9c-1.8-0.9-2.9-3-2.6-5c0.3-2.2-0.2-4.4-1.6-6.1c-1.4-1.8-3.3-2.9-5.6-3.1
		c-2.1-0.2-3.8-1.7-4.2-3.7c-0.5-2.2-1.8-4-3.7-5.1c-1.9-1.1-4.1-1.5-6.3-0.9c-2,0.5-4.1-0.2-5.3-2c-1.2-1.8-3.1-3.1-5.3-3.5
		C81,0.2,78.8,0.7,77,2.1c-1.7,1.2-3.9,1.3-5.6,0.1c-1.8-1.3-4-1.7-6.2-1.3c-2.2,0.4-4,1.7-5.2,3.6c-1.1,1.7-3.2,2.6-5.2,2.1
		c-2.2-0.5-4.4-0.2-6.3,1c-1.9,1.2-3.2,3.1-3.6,5.2c-0.4,2-2.1,3.6-4.1,3.8c-2.2,0.3-4.2,1.4-5.5,3.2c-1.3,1.8-1.8,4-1.5,6.2
		c0.4,2-0.6,4.1-2.4,5.1c-2,1.1-3.4,2.8-3.9,5s-0.3,4.4,0.9,6.3c1.1,1.8,0.9,4-0.4,5.6c-1.4,1.7-2.1,3.9-1.9,6.1
		c0.2,2.2,1.3,4.2,3.1,5.5c1.6,1.3,2.3,3.4,1.6,5.4c-0.7,2.1-0.6,4.4,0.5,6.3c1,2,2.8,3.4,4.9,4.1c2,0.6,3.4,2.4,3.4,4.4
		c0.1,2.2,1,4.3,2.7,5.7L24.8,137l21-8.2l11.3,19.6l17.1-50.6c0.4,0,0.7,0.1,1.1,0.1c0,0,0,0,0,0l18.3,50.4l11.2-19.5l21.1,8.2
		L107.3,85.6z M37,72.3c-1.3-0.4-2.3-1.2-2.9-2.4c-0.6-1.2-0.7-2.5-0.3-3.8c1.1-3.3,0-6.9-2.7-9c-1.1-0.8-1.7-2-1.8-3.3
		c-0.1-1.3,0.3-2.6,1.1-3.6c2.2-2.7,2.5-6.4,0.7-9.4c-0.7-1.1-0.9-2.5-0.5-3.8c0.3-1.3,1.2-2.3,2.3-3c3-1.7,4.7-5.1,4.1-8.5
		c-0.2-1.3,0.1-2.6,0.9-3.7c0.8-1.1,1.9-1.8,3.3-1.9c3.4-0.5,6.2-3,6.9-6.4c0.3-1.3,1-2.4,2.1-3.1s2.4-0.9,3.7-0.6
		c3.4,0.8,6.9-0.6,8.7-3.5c0.7-1.1,1.8-1.9,3.1-2.1c1.3-0.3,2.6,0,3.7,0.8c2.8,2,6.6,1.9,9.4-0.1c1.1-0.8,2.4-1.1,3.7-0.9
		c1.3,0.2,2.4,1,3.2,2.1c1.9,2.9,5.5,4.2,8.8,3.3c1.3-0.3,2.6-0.2,3.8,0.5c1.1,0.7,1.9,1.8,2.2,3.1c0.8,3.4,3.6,5.9,7,6.3
		c1.3,0.1,2.5,0.8,3.3,1.8c0.8,1.1,1.2,2.4,1,3.7c-0.5,3.4,1.2,6.8,4.3,8.4c1.2,0.6,2,1.6,2.4,2.9c0.4,1.3,0.2,2.6-0.4,3.8
		c-1.7,3-1.3,6.8,1,9.4c0.9,1,1.3,2.3,1.2,3.6c-0.1,1.3-0.7,2.5-1.8,3.4c-2.7,2.2-3.7,5.9-2.5,9.1c0.5,1.2,0.4,2.6-0.2,3.8
		c-0.6,1.2-1.6,2.1-2.9,2.5c-3.3,1.1-5.5,4.1-5.6,7.6c0,1.3-0.6,2.6-1.5,3.5c-1,0.9-2.2,1.4-3.6,1.3c-3.5-0.2-6.7,1.8-8,5.1
		c-0.5,1.2-1.4,2.2-2.7,2.7c-1.2,0.5-2.6,0.5-3.8-0.1h0c-3.2-1.4-6.9-0.7-9.2,1.9c-0.9,1-2.1,1.5-3.5,1.5c-1.3,0-2.6-0.5-3.5-1.4
		c-1.6-1.6-3.6-2.4-5.8-2.4c-1.2,0-2.4,0.3-3.5,0.8c-1.2,0.6-2.5,0.6-3.8,0.2c-1.2-0.5-2.2-1.4-2.7-2.6c-1.4-3.2-4.6-5.1-8.1-4.9
		c-1.3,0.1-2.6-0.3-3.6-1.2c-1-0.9-1.6-2.1-1.6-3.4C42.6,76.3,40.3,73.3,37,72.3z M56.3,140.6l-9.1-15.8l-17.1,6.7l14.9-44.2
		c1,0.3,2.1,0.4,3.1,0.4c2.1-0.2,4,1,4.8,2.9c0.9,2,2.5,3.6,4.6,4.4c2.1,0.8,4.3,0.7,6.3-0.3c1.9-0.9,4.1-0.5,5.5,1
		c0.5,0.5,1,0.9,1.6,1.3L56.3,140.6z M103.5,124.8l-9.1,15.9L78.6,97.3c1-0.4,1.9-1.1,2.7-1.9c1.4-1.5,3.6-2,5.5-1.1
		c2,0.9,4.3,1,6.4,0.1c2.1-0.8,3.7-2.4,4.5-4.5c0.8-1.9,2.7-3.1,4.7-3c0.7,0,1.3,0,2-0.1l16.2,44.6L103.5,124.8z"/>
	<path class="st0" d="M67,50.6c0.3,0.3,0.5,0.8,0.4,1.2l-1.6,7.4c-0.2,1.1,0.9,2,1.9,1.4l6.6-3.8c0.4-0.2,0.9-0.2,1.3,0l6.6,3.8
		c1,0.6,2.2-0.3,1.9-1.4l-1.6-7.4c-0.1-0.5,0.1-0.9,0.4-1.2l5.7-5.1c0.8-0.7,0.4-2.1-0.7-2.3l-7.5-0.8c-0.5,0-0.9-0.3-1.1-0.8
		l-3.1-6.9c-0.5-1-1.9-1-2.4,0l-3.1,6.9c-0.2,0.4-0.6,0.7-1.1,0.8l-7.5,0.8c-1.1,0.1-1.6,1.5-0.7,2.3L67,50.6z"/>
</g>
</svg>
