<?xml version="1.0" encoding="utf-8"?>
<!-- Generator: Adobe Illustrator 22.0.1, SVG Export Plug-In . SVG Version: 6.00 Build 0)  -->
<svg version="1.1" id="Layer_1" xmlns="http://www.w3.org/2000/svg" xmlns:xlink="http://www.w3.org/1999/xlink" x="0px" y="0px"
	 viewBox="0 0 150 150" style="enable-background:new 0 0 150 150;" xml:space="preserve">
<style type="text/css">
	.st0{fill:#9F9F9F;}
</style>
<g>
	<path class="st0" d="M144,16.5H5.8c-2.4,0-4.4,2-4.4,4.4v13.2v95.6c0,2.4,2,4.4,4.4,4.4H144c2.4,0,4.4-2,4.4-4.4V34.1V20.9
		C148.4,18.5,146.4,16.5,144,16.5z M4.4,20.9c0-0.8,0.7-1.5,1.5-1.5H144c0.8,0,1.5,0.7,1.5,1.5v10.2H4.4V20.9z M145.4,129.7
		c0,0.8-0.7,1.5-1.5,1.5H5.8c-0.8,0-1.5-0.7-1.5-1.5V34.1h141.1V129.7z"/>
	<circle class="st0" cx="11.4" cy="25.2" r="3.1"/>
	<circle class="st0" cx="20.2" cy="25.2" r="3.1"/>
	<circle class="st0" cx="29.1" cy="25.2" r="3.1"/>
	<path class="st0" d="M48.6,117.5h52.7c2.4,0,4.4-2,4.4-4.4V74.7c0-2.4-2-4.4-4.4-4.4h-2v-9.9c0-6.9-5.6-12.4-12.4-12.4H63.5
		c-6.9,0-12.4,5.6-12.4,12.4v9.9h-2.5c-2.4,0-4.4,2-4.4,4.4V113C44.2,115.5,46.2,117.5,48.6,117.5z M102.8,110.8l-3.7,3.7h-6.4
		l8.8-8.8h1.4V110.8z M88.5,114.5h-6.4l8.8-8.8h6.4L88.5,114.5z M77.9,114.5h-6.4l8.8-8.8h6.4L77.9,114.5z M67.3,114.5h-6.4l8.8-8.8
		h6.4L67.3,114.5z M56.7,114.5h-6.4l8.8-8.8h6.4L56.7,114.5z M47.2,113.4c0-0.1-0.1-0.3-0.1-0.4v-5.9l1.4-1.4h6.4L47.2,113.4z
		 M54,60.3c0-5.2,4.3-9.5,9.5-9.5h23.4c5.2,0,9.5,4.3,9.5,9.5v9.9H54V60.3z M48.6,73.2h52.7c0.8,0,1.5,0.7,1.5,1.5v28.1H47.1V74.7
		C47.1,73.8,47.8,73.2,48.6,73.2z"/>
	<path class="st0" d="M73.4,89.5v4.3h3v-4.3c1.2-0.6,2-1.7,2-3.1c0-1.9-1.5-3.4-3.4-3.4s-3.4,1.5-3.4,3.4
		C71.4,87.8,72.3,89,73.4,89.5z"/>
</g>
</svg>
